#!OML:ASF X:\für Bonn\!DataBase\2005_08_11_Bastian_Final\c3d\Bastian.ASF
:FULLY-SPECIFIED
:DEGREES
216
root 22.4461 16.4206 -2.14394 362.415 -69.7937 32.3702
lowerback 76.3436 -5.20254 12.535
upperback 11.4966 1.5407 -0.0364268
thorax -6.98233 0.274718 -5.37056
lowerneck -0.865256 -8.67718 2.22965
upperneck -26.6239 -10.7894 8.95253
head -7.69332 -6.81456 3.32011
rclavicle -3.81667e-014 -3.65764e-014
rhumerus 61.3734 -21.7193 -61.5148
rradius 15.0322
rwrist 11.6381
rhand -43.5446 -4.85944
rfingers 7.12502
rthumb -16.3828 -34.1876
lclavicle -3.81667e-014 -3.65764e-014
lhumerus -13.0719 -29.2696 87.0518
lradius 50.8388
lwrist 33.017
lhand -13.4415 -16.1995
lfingers 7.12502
lthumb 12.6676 13.3963
rfemur -70.5243 -7.93297 14.5744
rtibia 64.0805
rfoot -17.5073 -9.07796
rtoes 1.281
lfemur -65.9535 -8.57167 -28.9287
ltibia 45.0147
lfoot -3.12747 -6.43049
ltoes -18.1483
217
root 22.4444 16.43 -2.14092 362.334 -69.679 32.3799
lowerback 76.1648 -5.23606 12.5415
upperback 11.6766 1.45673 -0.0456072
thorax -6.79547 0.258316 -5.35515
lowerneck -1.27467 -8.66969 2.19089
upperneck -26.431 -10.8083 8.96983
head -7.55199 -6.81593 3.29606
rclavicle 6.36111e-015 9.54166e-015
rhumerus 61.4768 -21.6645 -61.5563
rradius 15.0395
rwrist 11.3133
rhand -43.7077 -5.08409
rfingers 7.12502
rthumb -16.5398 -34.3992
lclavicle 6.36111e-015 9.54166e-015
lhumerus -12.7645 -29.1618 86.968
lradius 50.7592
lwrist 33.0273
lhand -13.4088 -16.2349
lfingers 7.12502
lthumb 12.6991 13.359
rfemur -70.3551 -8.0571 14.5494
rtibia 63.9809
rfoot -17.4922 -9.06243
rtoes 1.2806
lfemur -65.7344 -8.64651 -28.9762
ltibia 44.8073
lfoot -3.05252 -6.45632
ltoes -18.0552
218
root 22.4432 16.4386 -2.13783 362.297 -69.5653 32.3439
lowerback 75.9919 -5.29261 12.5845
upperback 11.8291 1.37743 -0.0815305
thorax -6.63559 0.245466 -5.38641
lowerneck -1.56609 -8.67175 2.14391
upperneck -26.2826 -10.819 9.03813
head -7.44313 -6.81768 3.29889
rclavicle 1.36764e-013 3.18055e-014
rhumerus 61.4011 -21.5291 -61.355
rradius 15.0905
rwrist 10.6435
rhand -43.8925 -5.27433
rfingers 7.12502
rthumb -16.7177 -34.5745
lclavicle 1.36764e-013 3.18055e-014
lhumerus -12.5376 -29.1714 86.8552
lradius 50.7348
lwrist 33.0976
lhand -13.3986 -16.1906
lfingers 7.12502
lthumb 12.709 13.4027
rfemur -70.1908 -8.17341 14.5394
rtibia 63.887
rfoot -17.4779 -9.05305
rtoes 1.28124
lfemur -65.5178 -8.70673 -29.0255
ltibia 44.5972
lfoot -2.95358 -6.50958
ltoes -17.9775
219
root 22.4421 16.447 -2.13416 362.228 -69.4649 32.3609
lowerback 75.7788 -5.32886 12.6026
upperback 12.0039 1.29165 -0.11739
thorax -6.45747 0.23124 -5.4076
lowerneck -1.88713 -8.65511 2.10213
upperneck -26.1254 -10.8034 9.11018
head -7.32756 -6.80676 3.2987
rclavicle -6.67916e-014 7.95139e-015
rhumerus 61.6287 -21.5841 -61.7442
rradius 15.0322
rwrist 10.6801
rhand -44.0202 -5.65668
rfingers 7.12502
rthumb -16.8407 -34.9464
lclavicle -6.67916e-014 7.95139e-015
lhumerus -12.2889 -29.1286 86.7265
lradius 50.6915
lwrist 33.1538
lhand -13.3308 -16.197
lfingers 7.12502
lthumb 12.7743 13.3922
rfemur -70.0459 -8.28948 14.5139
rtibia 63.7907
rfoot -17.4784 -9.03537
rtoes 1.2843
lfemur -65.3248 -8.76505 -29.0908
ltibia 44.3892
lfoot -2.86685 -6.54304
ltoes -17.7578
220
root 22.4409 16.4548 -2.13053 362.042 -69.3705 32.4792
lowerback 75.5724 -5.35706 12.5884
upperback 12.1802 1.19103 -0.158894
thorax -6.28215 0.210702 -5.41734
lowerneck -2.16038 -8.63398 2.04761
upperneck -25.9844 -10.7719 9.21022
head -7.2239 -6.7894 3.31252
rclavicle 9.22361e-014 3.18055e-015
rhumerus 61.7402 -21.508 -61.8653
rradius 15.0216
rwrist 10.5226
rhand -44.151 -5.95527
rfingers 7.12502
rthumb -16.9665 -35.2343
lclavicle 9.22361e-014 3.18055e-015
lhumerus -12.0796 -29.0578 86.6163
lradius 50.6536
lwrist 33.1838
lhand -13.2346 -16.1737
lfingers 7.12502
lthumb 12.8671 13.4096
rfemur -69.8925 -8.41291 14.4521
rtibia 63.7059
rfoot -17.4614 -9.00147
rtoes 1.2811
lfemur -65.1028 -8.82047 -29.1978
ltibia 44.1842
lfoot -2.7641 -6.58531
ltoes -17.6253
221
root 22.4402 16.4632 -2.12731 361.899 -69.2624 32.5413
lowerback 75.3637 -5.40385 12.6009
upperback 12.3614 1.08802 -0.208886
thorax -6.09825 0.191228 -5.44584
lowerneck -2.41328 -8.61316 2.0477
upperneck -25.8842 -10.7472 9.26483
head -7.14435 -6.77821 3.30795
rclavicle 2.8625e-014 2.06736e-014
rhumerus 61.8138 -21.4227 -61.953
rradius 15.0461
rwrist 10.3412
rhand -44.2871 -5.98228
rfingers 7.12502
rthumb -17.0976 -35.25
lclavicle 2.8625e-014 2.06736e-014
lhumerus -11.8879 -29.0422 86.4758
lradius 50.667
lwrist 33.2467
lhand -13.1543 -16.1238
lfingers 7.12502
lthumb 12.9445 13.4547
rfemur -69.7234 -8.53907 14.4076
rtibia 63.6227
rfoot -17.4496 -8.97639
rtoes 1.27994
lfemur -64.8725 -8.89836 -29.2689
ltibia 43.9815
lfoot -2.69999 -6.59309
ltoes -17.6159
222
root 22.4403 16.4703 -2.12372 361.797 -69.1555 32.5586
lowerback 75.165 -5.44683 12.6262
upperback 12.5359 1.00217 -0.244899
thorax -5.91866 0.176684 -5.46939
lowerneck -2.6764 -8.59073 2.07416
upperneck -25.8108 -10.7263 9.2922
head -7.07578 -6.7705 3.29222
rclavicle 1.90833e-014 -1.27222e-014
rhumerus 62.0425 -21.4218 -62.3158
rradius 14.9958
rwrist 10.428
rhand -44.4064 -5.99387
rfingers 7.12502
rthumb -17.2124 -35.2515
lclavicle 1.90833e-014 -1.27222e-014
lhumerus -11.7204 -29.0014 86.381
lradius 50.6565
lwrist 33.2421
lhand -13.0882 -16.1512
lfingers 7.12502
lthumb 13.0081 13.4233
rfemur -69.5551 -8.66809 14.381
rtibia 63.5402
rfoot -17.4366 -8.94876
rtoes 1.26518
lfemur -64.6471 -8.95306 -29.3467
ltibia 43.7784
lfoot -2.6013 -6.6451
ltoes -17.5355
223
root 22.4403 16.4779 -2.12005 361.679 -69.0346 32.5729
lowerback 74.9629 -5.53488 12.6953
upperback 12.7067 0.897044 -0.312681
thorax -5.74013 0.159196 -5.53826
lowerneck -2.91299 -8.58276 2.07957
upperneck -25.7106 -10.7153 9.35985
head -6.99848 -6.76701 3.29265
rclavicle -6.04305e-014 5.40694e-014
rhumerus 62.0883 -21.3442 -62.4105
rradius 15.0249
rwrist 10.3353
rhand -44.493 -6.09067
rfingers 7.12502
rthumb -17.2957 -35.3411
lclavicle -6.04305e-014 5.40694e-014
lhumerus -11.552 -29.0112 86.2414
lradius 50.6427
lwrist 33.2994
lhand -12.9861 -16.1529
lfingers 7.12502
lthumb 13.1066 13.4152
rfemur -69.3689 -8.7977 14.3501
rtibia 63.4628
rfoot -17.432 -8.95506
rtoes 1.15406
lfemur -64.3902 -8.99244 -29.4495
ltibia 43.573
lfoot -2.52498 -6.73432
ltoes -17.4389
224
root 22.4406 16.4862 -2.11645 361.642 -68.9254 32.5209
lowerback 74.7458 -5.59567 12.754
upperback 12.8827 0.812201 -0.354155
thorax -5.55704 0.146521 -5.58152
lowerneck -3.13708 -8.56783 2.03667
upperneck -25.6574 -10.6889 9.45961
head -6.93419 -6.75699 3.31356
rclavicle 4.77083e-014 -3.33958e-014
rhumerus 62.1625 -21.2303 -62.4711
rradius 15.0558
rwrist 10.1637
rhand -44.635 -6.11707
rfingers 7.12502
rthumb -17.4324 -35.3554
lclavicle 4.77083e-014 -3.33958e-014
lhumerus -11.3955 -28.9823 86.1493
lradius 50.6252
lwrist 33.2927
lhand -12.8869 -16.166
lfingers 7.12502
lthumb 13.2022 13.396
rfemur -69.1983 -8.91966 14.3449
rtibia 63.3767
rfoot -17.4151 -8.93417
rtoes 1.12746
lfemur -64.17 -9.06132 -29.4783
ltibia 43.3716
lfoot -2.42726 -6.75749
ltoes -17.0065
225
root 22.4413 16.4945 -2.11275 361.453 -68.8045 32.5885
lowerback 74.5684 -5.67231 12.8024
upperback 13.0565 0.708584 -0.405919
thorax -5.3752 0.127322 -5.62397
lowerneck -3.37148 -8.56485 2.00988
upperneck -25.5788 -10.685 9.53684
head -6.86167 -6.75611 3.32371
rclavicle -5.40694e-014 4.77083e-015
rhumerus 62.3297 -21.18 -62.7192
rradius 15.0313
rwrist 10.2438
rhand -44.8225 -6.08081
rfingers 7.12502
rthumb -17.6129 -35.303
lclavicle -5.40694e-014 4.77083e-015
lhumerus -11.254 -28.9793 86.0397
lradius 50.663
lwrist 33.3076
lhand -12.8266 -16.1055
lfingers 7.12502
lthumb 13.2603 13.4527
rfemur -68.9879 -9.06306 14.2901
rtibia 63.2971
rfoot -17.4053 -8.90043
rtoes 1.1253
lfemur -63.8927 -9.11485 -29.5924
ltibia 43.1656
lfoot -2.33078 -6.82068
ltoes -16.9193
226
root 22.4421 16.5025 -2.10954 361.289 -68.6959 32.6485
lowerback 74.3564 -5.73827 12.8569
upperback 13.2414 0.611917 -0.465576
thorax -5.18316 0.113206 -5.68228
lowerneck -3.57326 -8.55767 2.00118
upperneck -25.5627 -10.6689 9.62484
head -6.81658 -6.75496 3.33981
rclavicle 1.39944e-013 -5.725e-014
rhumerus 62.6099 -21.2159 -63.212
rradius 14.9652
rwrist 10.5889
rhand -45.0695 -5.91244
rfingers 7.12502
rthumb -17.8505 -35.1132
lclavicle 1.39944e-013 -5.725e-014
lhumerus -11.0695 -28.9664 85.9246
lradius 50.6149
lwrist 33.228
lhand -12.7641 -16.1009
lfingers 7.12502
lthumb 13.3205 13.4534
rfemur -68.7916 -9.17281 14.2251
rtibia 63.2126
rfoot -17.3882 -8.91522
rtoes 1.08225
lfemur -63.6443 -9.15649 -29.701
ltibia 42.9622
lfoot -2.25193 -6.88912
ltoes -16.8825
227
root 22.4426 16.5102 -2.10635 361.195 -68.5879 32.6543
lowerback 74.1486 -5.78767 12.8907
upperback 13.4079 0.525991 -0.495985
thorax -5.01349 0.0969545 -5.70296
lowerneck -3.75975 -8.54336 1.94274
upperneck -25.5345 -10.6475 9.69933
head -6.76767 -6.74484 3.35912
rclavicle 3.18055e-014 4.77083e-015
rhumerus 62.8855 -21.1636 -63.6176
rradius 14.8717
rwrist 10.8712
rhand -45.4029 -5.54094
rfingers 7.12502
rthumb -18.1713 -34.7121
lclavicle 3.18055e-014 4.77083e-015
lhumerus -10.9233 -28.927 85.8658
lradius 50.5919
lwrist 33.1862
lhand -12.7458 -16.0479
lfingers 7.12502
lthumb 13.3383 13.5052
rfemur -68.6308 -9.30237 14.209
rtibia 63.1395
rfoot -17.3815 -8.9092
rtoes 0.967696
lfemur -63.4116 -9.18732 -29.7857
ltibia 42.7588
lfoot -2.15637 -6.972
ltoes -16.5554
228
root 22.4436 16.517 -2.1024 361.039 -68.4645 32.7141
lowerback 73.9189 -5.87919 12.971
upperback 13.6067 0.415024 -0.566192
thorax -4.80563 0.0806245 -5.77806
lowerneck -3.98626 -8.54904 1.94708
upperneck -25.5276 -10.6512 9.78856
head -6.72182 -6.75561 3.37362
rclavicle 3.18055e-014 -7.95139e-015
rhumerus 63.4045 -21.3111 -64.508
rradius 14.6557
rwrist 11.6348
rhand -45.7247 -4.87134
rfingers 7.12502
rthumb -18.4809 -34.0134
lclavicle 3.18055e-014 -7.95139e-015
lhumerus -10.7319 -28.9766 85.7234
lradius 50.5806
lwrist 33.1195
lhand -12.7407 -15.9991
lfingers 7.12502
lthumb 13.3431 13.5537
rfemur -68.4558 -9.43215 14.1425
rtibia 63.0773
rfoot -17.3841 -8.89269
rtoes 1.06942
lfemur -63.17 -9.25681 -29.8868
ltibia 42.5589
lfoot -2.0623 -7.00429
ltoes -16.5327
229
root 22.4444 16.5236 -2.09913 360.814 -68.3502 32.8389
lowerback 73.7298 -5.93435 12.9691
upperback 13.7801 0.299225 -0.605163
thorax -4.63288 0.0522636 -5.78288
lowerneck -4.15774 -8.52205 1.86648
upperneck -25.5494 -10.6043 9.89359
head -6.6896 -6.73629 3.40907
rclavicle 2.54444e-014 -1.11319e-014
rhumerus 63.937 -21.3505 -65.3254
rradius 14.4211
rwrist 12.3812
rhand -46.0517 -3.9547
rfingers 7.12502
rthumb -18.7954 -33.0666
lclavicle 2.54444e-014 -1.11319e-014
lhumerus -10.5766 -28.9214 85.6376
lradius 50.5436
lwrist 33.0261
lhand -12.7393 -15.9816
lfingers 7.12502
lthumb 13.3445 13.5711
rfemur -68.2819 -9.57783 14.0698
rtibia 63.0224
rfoot -17.381 -8.85151
rtoes 1.06638
lfemur -62.9142 -9.30472 -30.021
ltibia 42.3676
lfoot -1.99629 -7.07327
ltoes -16.4361
